<?xml version="1.0" encoding="utf-8"?>
<svg version="1.1" id="Layer_1"
    xmlns="http://www.w3.org/2000/svg"
    xmlns:xlink="http://www.w3.org/1999/xlink" x="0px" y="0px" height="24" viewBox="0 0 122.88 73.56" style="enable-background:new 0 0 122.88 73.56" xml:space="preserve">
    <g>
        <path d="M32.59,29.44c0-8.54-6.95-15.46-15.53-15.46c-8.57,0-15.53,6.92-15.53,15.46c0,8.54,6.95,15.47,15.53,15.47 C25.64,44.91,32.59,37.98,32.59,29.44L32.59,29.44z M101.82,42.54c-12.15,0-21.06,10.67-21.06,21.69v7.42l0,0 c0,1.05,0.86,1.91,1.91,1.91h0.68h36.94h0.68c1.06,0,1.92-0.87,1.92-1.91l0,0v-7.42C122.88,53.21,113.97,42.54,101.82,42.54 L101.82,42.54z M120.98,19.09C120.98,8.55,112.4,0,101.82,0S82.66,8.55,82.66,19.09s8.58,19.09,19.16,19.09 S120.98,29.64,120.98,19.09L120.98,19.09z M57.42,45.64c-10.94,0-18.96,9.6-18.96,19.52v6.68l0,0c0,0.94,0.77,1.72,1.73,1.72h0.61 h33.24h0.61c0.95,0,1.72-0.78,1.72-1.72l0,0v-6.68C76.37,55.24,68.35,45.64,57.42,45.64L57.42,45.64z M74.67,24.53 c0-9.49-7.72-17.18-17.25-17.18s-17.25,7.69-17.25,17.18c0,9.49,7.72,17.19,17.25,17.19S74.67,34.03,74.67,24.53L74.67,24.53z M17.06,48.44C7.21,48.44,0,57.08,0,66v6l0,0c0,0.85,0.69,1.55,1.55,1.55H2.1h29.92h0.55c0.86,0,1.56-0.7,1.56-1.55l0,0v-6 C34.12,57.08,26.9,48.44,17.06,48.44L17.06,48.44z"/>
    </g>
</svg>